<svg width="101" height="94" viewBox="0 0 101 94" fill="none" xmlns="http://www.w3.org/2000/svg">
<rect width="101" height="94" fill="#E5E5E5"/>
<path d="M27.5 23H19V70H25.5V32L50.5 76L76.5 33V70H83V23H74.5L50.5 64L27.5 23Z" fill="black"/>
<path d="M50.5 14C46.5 21 38.4 35.2 38 36L42.5 42.5L50.5 27L60.5 42.5L64 36L50.5 14Z" fill="black"/>
<path d="M74.5 54V66L66.5 54L70.5 47.5L74.5 54Z" fill="black"/>
<path d="M35.5 54L27.5 66V54L31.5 47.5L35.5 54Z" fill="black"/>
<path d="M27.5 23H19V70H25.5V32L50.5 76L76.5 33V70H83V23H74.5L50.5 64L27.5 23Z" stroke="black"/>
<path d="M50.5 14C46.5 21 38.4 35.2 38 36L42.5 42.5L50.5 27L60.5 42.5L64 36L50.5 14Z" stroke="black"/>
<path d="M74.5 54V66L66.5 54L70.5 47.5L74.5 54Z" stroke="black"/>
<path d="M35.5 54L27.5 66V54L31.5 47.5L35.5 54Z" stroke="black"/>
</svg>
