<svg width="66" height="60" viewBox="0 0 66 60" fill="none" xmlns="http://www.w3.org/2000/svg">
<path d="M8.32875 8H3C1.89543 8 1 8.89543 1 10V53C1 54.1046 1.89543 55 3 55H5.5C6.60457 55 7.5 54.1046 7.5 53V24.5685C7.5 22.515 10.2245 21.795 11.2389 23.5805L30.8147 58.0339C31.5695 59.3623 33.4746 59.3881 34.2651 58.0808L54.7885 24.1382C55.8362 22.4055 58.5 23.1482 58.5 25.173V53C58.5 54.1046 59.3954 55 60.5 55H63C64.1046 55 65 54.1046 65 53V10C65 8.89543 64.1046 8 63 8H57.6467C56.9365 8 56.2795 8.37668 55.9207 8.98964L34.263 45.9883C33.4823 47.3219 31.5487 47.3041 30.7926 45.9564L10.073 9.0215C9.71912 8.39061 9.05213 8 8.32875 8Z" fill="black"/>
<path d="M30.8254 1.93175C27.2532 8.18833 22.255 16.9575 20.5673 19.9702C20.2104 20.6073 20.2584 21.3732 20.6741 21.9737L22.6052 24.763C23.464 26.0035 25.3348 25.8826 26.0268 24.5419L30.9153 15.0703C31.6205 13.704 33.5396 13.6113 34.3731 14.9034L40.664 24.6543C41.4892 25.9333 43.3839 25.8584 44.1056 24.5182L45.4544 22.0133C45.7922 21.386 45.7707 20.6263 45.3981 20.0191L34.2659 1.87783C33.4711 0.58246 31.579 0.61191 30.8254 1.93175Z" fill="black"/>
<path d="M56.5 39.5661V44.3944C56.5 46.3733 53.9336 47.1503 52.8359 45.5039L49.2108 40.0662C48.7776 39.4164 48.7623 38.5738 49.1716 37.9086L50.7967 35.2679C51.5777 33.9988 53.4223 33.9988 54.2033 35.2679L56.2033 38.5179C56.3973 38.8331 56.5 39.196 56.5 39.5661Z" fill="black"/>
<path d="M16.7892 40.0662L13.1641 45.5038C12.0665 47.1503 9.5 46.3733 9.5 44.3944V39.5661C9.5 39.196 9.60271 38.8331 9.79668 38.5179L11.7967 35.2679C12.5777 33.9988 14.4223 33.9988 15.2033 35.2679L16.8284 37.9086C17.2377 38.5738 17.2224 39.4164 16.7892 40.0662Z" fill="black"/>
<path d="M8.32875 8H3C1.89543 8 1 8.89543 1 10V53C1 54.1046 1.89543 55 3 55H5.5C6.60457 55 7.5 54.1046 7.5 53V24.5685C7.5 22.515 10.2245 21.795 11.2389 23.5805L30.8147 58.0339C31.5695 59.3623 33.4746 59.3881 34.2651 58.0808L54.7885 24.1382C55.8362 22.4055 58.5 23.1482 58.5 25.173V53C58.5 54.1046 59.3954 55 60.5 55H63C64.1046 55 65 54.1046 65 53V10C65 8.89543 64.1046 8 63 8H57.6467C56.9365 8 56.2795 8.37668 55.9207 8.98964L34.263 45.9883C33.4823 47.3219 31.5487 47.3041 30.7926 45.9564L10.073 9.0215C9.71912 8.39061 9.05213 8 8.32875 8Z" stroke="black"/>
<path d="M30.8254 1.93175C27.2532 8.18833 22.255 16.9575 20.5673 19.9702C20.2104 20.6073 20.2584 21.3732 20.6741 21.9737L22.6052 24.763C23.464 26.0035 25.3348 25.8826 26.0268 24.5419L30.9153 15.0703C31.6205 13.704 33.5396 13.6113 34.3731 14.9034L40.664 24.6543C41.4892 25.9333 43.3839 25.8584 44.1056 24.5182L45.4544 22.0133C45.7922 21.386 45.7707 20.6263 45.3981 20.0191L34.2659 1.87783C33.4711 0.58246 31.579 0.61191 30.8254 1.93175Z" stroke="black"/>
<path d="M56.5 39.5661V44.3944C56.5 46.3733 53.9336 47.1503 52.8359 45.5039L49.2108 40.0662C48.7776 39.4164 48.7623 38.5738 49.1716 37.9086L50.7967 35.2679C51.5777 33.9988 53.4223 33.9988 54.2033 35.2679L56.2033 38.5179C56.3973 38.8331 56.5 39.196 56.5 39.5661Z" stroke="black"/>
<path d="M16.7892 40.0662L13.1641 45.5038C12.0665 47.1503 9.5 46.3733 9.5 44.3944V39.5661C9.5 39.196 9.60271 38.8331 9.79668 38.5179L11.7967 35.2679C12.5777 33.9988 14.4223 33.9988 15.2033 35.2679L16.8284 37.9086C17.2377 38.5738 17.2224 39.4164 16.7892 40.0662Z" stroke="black"/>
</svg>
